<?xml version="1.0" encoding="UTF-8"?>
<!-- Generated by Pixelmator Pro 3.6.12 -->
<svg width="16" height="16" viewBox="0 0 16 16" xmlns="http://www.w3.org/2000/svg">
    <path id="Percorso" fill="#000000" stroke="none" d="M 5.185076 5.185077 C 5.185076 4.768655 4.768655 5.185077 5.185076 5.185077 L 6.592538 5.185077 C 7.008959 5.185077 6.592538 4.768655 6.592538 5.185077 L 6.592538 6.592538 C 6.592538 7.00896 7.008959 6.592538 6.592538 6.592538 L 5.185076 6.592538 C 4.768655 6.592538 5.185076 7.00896 5.185076 6.592538 Z M 9.407462 5.185077 C 9.407462 4.768655 8.84024 5.185077 9.256662 5.185077 L 10.764657 5.185077 C 11.181079 5.185077 10.814923 4.818921 10.814923 5.235343 L 10.814923 6.592538 C 10.814923 7.00896 11.231345 6.592538 10.814923 6.592538 L 9.407462 6.592538 C 8.99104 6.592538 9.407462 7.00896 9.407462 6.592538 Z M 5.185076 9.256662 C 5.185076 8.840241 4.768655 9.407462 5.185076 9.407462 L 6.592538 9.407462 C 7.008959 9.407462 6.592538 8.991041 6.592538 9.407462 L 6.592538 10.814924 C 6.592538 11.231345 7.008959 10.814924 6.592538 10.814924 L 5.235343 10.814924 C 4.818922 10.814924 5.185076 11.181078 5.185076 10.764657 Z M 9.407462 9.407462 C 9.407462 8.991041 8.99104 9.407462 9.407462 9.407462 L 10.814923 9.407462 C 11.231345 9.407462 10.814923 8.840241 10.814923 9.256662 L 10.814923 10.764657 C 10.814923 11.181078 11.181079 10.814924 10.764657 10.814924 L 9.407462 10.814924 C 8.99104 10.814924 9.407462 11.231345 9.407462 10.814924 Z"/>
</svg>
